# xmcd
# 
# Track frame offsets:
#     150
#     24050
#     38194
#     61963
#     80902
#     98624
#     120909
#     137846
#     158725
#     175961
#     188307
#     215799
#     231464
#     244568
#     279933
#     307788
# 
# Disc length: 4326
# 
# Revision: 0
# Processed by: cddbd v1.5.2PL0 Copyright (c) Steve Scherf et al.
# Submitted via: fre:ac v1.0.31
# 
DISCID=c710e410
DTITLE=SOLEDAD - VIVO EN AREQUITO
DYEAR=2010
DGENRE=Folklore
TTITLE0=INTRODUCCION/LA VIAJERA
TTITLE1=CHACARERA PARA MI VUELTA
TTITLE2=MI PUEBLO
TTITLE3=COMPADRE QUE TIENE EL VINO
TTITLE4=ESTA VIDA
TTITLE5=CRONICA DEOTRA MUERTE ANUNCIADA
TTITLE6=Y ASI VOLVI
TTITLE7=TU CARCEL
TTITLE8=LA SALIDA (OYENDO LA VIDA)
TTITLE9=LUCERITO ALBA (EL TORO)
TTITLE10=ZAMBAS (LA LOPEZ PEREYRA/PERFUME DE CARNAVAL/AGITANDO PAÑUELOS)
TTITLE11=ESPERANDO TU REGRESO (CORAZON)
TTITLE12=MI CREDO
TTITLE13=DESPEDIDA (TREN DEL CIELO/EL HUMAHUAQUEÑO/EL BAHIANO/LUCES PARA MI/ TREN DEL CIELO)
TTITLE14=BRINDIS
TTITLE15=EN ESTUDIO: HIMNO NACIONAL
EXTD=
EXTT0=
EXTT1=
EXTT2=
EXTT3=
EXTT4=
EXTT5=
EXTT6=
EXTT7=
EXTT8=
EXTT9=
EXTT10=
EXTT11=
EXTT12=
EXTT13=
EXTT14=
EXTT15=
PLAYORDER=
